<?xml version="1.0" encoding="iso-8859-1"?>
<!-- Uploaded to: SVG Repo, www.svgrepo.com, Generator: SVG Repo Mixer Tools -->
<!DOCTYPE svg PUBLIC "-//W3C//DTD SVG 1.1//EN" "http://www.w3.org/Graphics/SVG/1.1/DTD/svg11.dtd">
<svg fill="#000000" version="1.1" id="Capa_1" xmlns="http://www.w3.org/2000/svg" xmlns:xlink="http://www.w3.org/1999/xlink" 
	 width="800px" height="800px" viewBox="0 0 293.914 293.914"
	 xml:space="preserve">
<g>
	<g>
		<path d="M186.582,169.631h-22.425v-58.481c0-2.765-2.09-5.069-4.841-5.35L23.431,92.093V37.972c0-2.966-2.41-5.375-5.376-5.375
			c-2.968,0-5.375,2.41-5.375,5.375v58.98c0,2.763,2.092,5.068,4.837,5.349l135.89,13.706v53.624h-22.42
			c-2.967,0-5.375,2.402-5.375,5.375v85.743c0,18.29,14.879,33.165,33.171,33.165c18.294,0,33.176-14.875,33.176-33.165v-85.743
			C191.957,172.028,189.543,169.631,186.582,169.631z"/>
		<path d="M275.858,0H41.701c-2.966,0-5.375,2.41-5.375,5.375v65.193c0,2.968,2.41,5.375,5.375,5.375h234.157
			c2.966,0,5.376-2.407,5.376-5.375V5.375C281.234,2.41,278.835,0,275.858,0z"/>
	</g>
</g>
</svg>